<svg width="18" height="18" viewBox="0 0 18 18" fill="none" xmlns="http://www.w3.org/2000/svg">
<ellipse cx="9.01156" cy="9.0812" rx="6.06546" ry="6.37685" fill="white"/>
<circle cx="0.75" cy="0.75" r="0.75" transform="matrix(1 0 0 -1 8.25006 1.49997)" fill="white"/>
<circle cx="0.75" cy="0.75" r="0.75" transform="matrix(1 0 0 -1 1.50006 3.74997)" fill="white"/>
<circle cx="0.75" cy="0.75" r="0.75" transform="matrix(1 0 0 -1 4.5 2.25)" fill="white"/>
<circle cx="0.75" cy="0.75" r="0.75" transform="matrix(1 0 0 -1 15.0001 4.5)" fill="white"/>
<circle cx="0.75" cy="0.75" r="0.75" transform="matrix(1 0 0 -1 11.9999 2.25)" fill="white"/>
<circle cx="0.75" cy="0.75" r="0.75" transform="matrix(1 0 0 -1 16.4999 7.50003)" fill="white"/>
<circle cx="0.75" cy="0.75" r="0.75" transform="matrix(1 0 0 -1 16.4999 10.5)" fill="white"/>
<circle cx="0.75" cy="0.75" r="0.75" transform="matrix(1 0 0 -1 15.75 13.5)" fill="white"/>
<circle cx="0.75" cy="0.75" r="0.75" transform="matrix(1 0 0 -1 13.5 16.5)" fill="white"/>
<circle cx="0.75" cy="0.75" r="0.75" transform="matrix(1 0 0 -1 9.74994 18)" fill="white"/>
<circle cx="0.75" cy="0.75" r="0.75" transform="matrix(1 0 0 -1 6.00006 18)" fill="white"/>
<circle cx="0.75" cy="0.75" r="0.75" transform="matrix(1 0 0 -1 2.25 16.5)" fill="white"/>
<circle cx="0.75" cy="0.75" r="0.75" transform="matrix(1 0 0 -1 0.749939 13.5)" fill="white"/>
<circle cx="0.75" cy="0.75" r="0.75" transform="matrix(1 0 0 -1 0 9.75003)" fill="white"/>
<circle cx="0.75" cy="0.75" r="0.75" transform="matrix(1 0 0 -1 0 6.75)" fill="white"/>
<circle cx="9.00006" cy="8.99997" r="5.25" fill="black"/>
</svg>
