<svg width="18" height="20" viewBox="0 0 18 20" fill="none" xmlns="http://www.w3.org/2000/svg">
<mask id="path-1-inside-1_195_16" fill="white">
<path fill-rule="evenodd" clip-rule="evenodd" d="M8.699 0.949553C7.52651 1.37816 6.3674 2.01002 5.27829 2.84736C0.550314 6.48237 -1.06772 12.6132 1.66432 16.5409C4.39636 20.4687 10.4439 20.706 15.1719 17.0709C16.261 16.2336 17.1851 15.2638 17.929 14.219C14.0115 15.6511 9.94486 14.8142 7.84215 11.7912C5.73946 8.76824 6.21353 4.44029 8.699 0.949553Z"/>
</mask>
<path fill-rule="evenodd" clip-rule="evenodd" d="M8.699 0.949553C7.52651 1.37816 6.3674 2.01002 5.27829 2.84736C0.550314 6.48237 -1.06772 12.6132 1.66432 16.5409C4.39636 20.4687 10.4439 20.706 15.1719 17.0709C16.261 16.2336 17.1851 15.2638 17.929 14.219C14.0115 15.6511 9.94486 14.8142 7.84215 11.7912C5.73946 8.76824 6.21353 4.44029 8.699 0.949553Z" fill="white"/>
<path d="M8.699 0.949553L10.2598 2.15609L14.046 -3.16143L8.07847 -0.979945L8.699 0.949553ZM17.929 14.219L19.4899 15.4255L23.276 10.108L17.3085 12.2895L17.929 14.219ZM6.42034 4.48923C7.35138 3.77342 8.3349 3.23899 9.31952 2.87905L8.07847 -0.979945C6.71813 -0.482659 5.38341 0.24663 4.13625 1.20549L6.42034 4.48923ZM3.24987 15.3219C1.3706 12.6202 2.22411 7.71542 6.42034 4.48923L4.13625 1.20549C-1.12348 5.24933 -3.50604 12.6062 0.0787655 17.76L3.24987 15.3219ZM14.0298 15.4291C9.8336 18.6553 5.12915 18.0237 3.24987 15.3219L0.0787655 17.76C3.66357 22.9137 11.0542 22.7566 16.3139 18.7128L14.0298 15.4291ZM16.3682 13.0125C15.7434 13.8898 14.9609 14.7132 14.0298 15.4291L16.3139 18.7128C17.5611 17.7539 18.6267 16.6377 19.4899 15.4255L16.3682 13.0125ZM17.3085 12.2895C13.9407 13.5206 10.8855 12.668 9.42771 10.5722L6.2566 13.0102C9.00422 16.9603 14.0823 17.7815 18.5495 16.1485L17.3085 12.2895ZM9.42771 10.5722C7.96992 8.47637 8.12315 5.157 10.2598 2.15609L7.13815 -0.256988C4.30391 3.72358 3.509 9.0601 6.2566 13.0102L9.42771 10.5722Z" fill="black" mask="url(#path-1-inside-1_195_16)"/>
</svg>
